<svg width="715" height="715" viewBox="0 0 715 715" fill="none" xmlns="http://www.w3.org/2000/svg">
<path d="M365.009 687.687L402.264 650.432C405.388 647.308 410.453 647.308 413.577 650.432C416.701 653.556 416.701 658.621 413.577 661.745L362.666 712.657C359.542 715.782 354.476 715.782 351.352 712.657L300.441 661.745C297.317 658.621 297.317 653.556 300.441 650.432C303.565 647.308 308.63 647.308 311.754 650.432L349.009 687.687V590.857H365.009V687.687ZM596.756 585.443V532.756C596.756 528.338 600.338 524.756 604.756 524.756C609.174 524.756 612.756 528.338 612.756 532.756V604.756C612.756 609.174 609.174 612.756 604.756 612.756H532.756C528.338 612.756 524.756 609.174 524.756 604.756C524.756 600.338 528.338 596.756 532.756 596.756H585.443L516.973 528.286L528.286 516.973L596.756 585.443ZM198.271 528.044L129.802 596.513H182.488C186.906 596.513 190.488 600.095 190.488 604.513C190.488 608.931 186.906 612.513 182.488 612.513L110.489 612.514C106.07 612.514 102.488 608.931 102.488 604.513L102.489 532.513C102.489 528.095 106.07 524.513 110.489 524.513C114.907 524.513 118.487 528.095 118.488 532.513V585.199L186.957 516.731L198.271 528.044ZM357.5 130C483.145 130 585 231.856 585 357.5C585 483.145 483.145 585 357.5 585C231.856 585 130 483.145 130 357.5C130 231.856 231.856 130 357.5 130ZM357.5 192C266.097 192 192 266.097 192 357.5C192 448.903 266.097 523 357.5 523C448.903 523 523 448.903 523 357.5C523 266.097 448.903 192 357.5 192ZM357 383C412.963 383 459.668 413.747 470.587 454.656C442.987 486.706 402.115 507 356.5 507C311.308 507 270.77 487.079 243.183 455.541C253.66 414.192 300.635 383 357 383ZM356.5 206C439.619 206 507 273.382 507 356.5C507 387.02 497.915 415.417 482.303 439.137C468.076 404.657 432.706 379.592 391.059 370.62C408.526 358.746 420 338.714 420 316C420 279.55 390.451 250 354 250C317.55 250 288 279.55 288 316C288 339.38 300.157 359.92 318.493 371.645C278.419 381.489 244.792 406.349 231.318 440.069C215.327 416.162 206 387.421 206 356.5C206 273.382 273.382 206 356.5 206ZM53.2551 300.441C56.3793 297.316 61.4444 297.317 64.5686 300.441C67.6928 303.565 67.6928 308.63 64.5686 311.754L27.3137 349.009H124.144V365.009H27.3137L64.5686 402.264C67.6928 405.388 67.6928 410.453 64.5686 413.577C61.4444 416.701 56.3793 416.702 53.2551 413.577L2.34303 362.666C-0.781043 359.542 -0.780976 354.476 2.34303 351.352L53.2551 300.441ZM650.432 300.441C653.556 297.317 658.621 297.317 661.745 300.441L712.657 351.352C715.782 354.476 715.782 359.542 712.657 362.666L661.745 413.577C658.621 416.701 653.556 416.701 650.432 413.577C647.308 410.453 647.308 405.388 650.432 402.264L687.687 365.009H590.857V349.009H687.687L650.432 311.754C647.308 308.63 647.308 303.565 650.432 300.441ZM354 266C381.614 266 404 288.386 404 316C404 343.614 381.614 366 354 366C326.386 366 304 343.614 304 316C304 288.386 326.386 266 354 266ZM182.488 102.489C186.906 102.489 190.488 106.07 190.488 110.489C190.487 114.907 186.906 118.488 182.488 118.488H129.802L198.271 186.957L186.957 198.271L118.488 129.802V182.488C118.488 186.906 114.907 190.487 110.489 190.488C106.07 190.488 102.489 186.906 102.489 182.488L102.488 110.489C102.488 106.07 106.07 102.488 110.489 102.488L182.488 102.489ZM604.756 102.244C609.174 102.245 612.756 105.827 612.756 110.245V182.245C612.756 186.663 609.174 190.245 604.756 190.245C600.338 190.245 596.756 186.664 596.756 182.245V129.559L528.286 198.028L516.973 186.714L585.443 118.245H532.756C528.338 118.245 524.756 114.664 524.756 110.245C524.756 105.827 528.338 102.245 532.756 102.245L604.756 102.244ZM351.352 2.34301C354.476 -0.780984 359.542 -0.781025 362.666 2.34301L413.577 53.2551C416.702 56.3793 416.701 61.4444 413.577 64.5686C410.453 67.6928 405.388 67.6928 402.264 64.5686L365.009 27.3137V124.144H349.009V27.3137L311.754 64.5686C308.63 67.6928 303.565 67.6928 300.441 64.5686C297.317 61.4444 297.317 56.3793 300.441 53.2551L351.352 2.34301Z" fill="white"/>
</svg>
